<svg width="72" height="26" viewBox="0 0 72 26" fill="none" xmlns="http://www.w3.org/2000/svg">
<path d="M2.20534 15.4L2.18534 15.42C2.20534 15.4 2.20534 15.4 2.20534 15.38V15.28C2.42534 14.1 2.84534 12.94 3.26534 11.8C3.70534 10.6 4.12534 9.42004 4.68534 8.28004C5.20534 7.20004 5.80534 6.14004 6.48534 5.16004C7.08534 4.26004 7.80534 3.28004 8.72534 2.68004C9.00534 2.60004 9.28534 2.30004 9.64534 2.36004C10.0053 2.42004 10.0053 2.80004 9.92534 3.16004C10.0253 2.88004 10.0853 2.58004 9.84534 2.38004C9.52534 2.14004 8.90534 2.52004 8.64534 2.70004C8.52534 2.74004 8.40534 2.82004 8.30534 2.90004C8.36534 2.84004 8.44534 2.78004 8.54534 2.72004L8.44534 2.76004L8.72534 2.60004C9.04534 2.42004 9.76534 2.02004 10.0053 2.54004C10.1853 2.96004 9.90534 3.66004 9.76534 4.06004C9.50534 4.74004 9.18534 5.38004 8.84534 6.02004C8.90534 5.88004 9.14534 5.34004 9.14534 5.34004C9.00534 5.32004 8.36534 6.80004 8.24534 6.84004H8.26534C8.18534 6.90004 8.12534 6.96004 8.12534 6.98004C8.08534 7.22004 8.36534 7.16004 8.52534 7.14004C9.20534 7.06004 10.0853 6.48004 10.5253 5.98004C11.0053 5.44004 11.1853 4.62004 11.1853 3.90004V3.88004C11.1653 2.52004 10.2253 0.800041 8.60534 0.900041C7.70534 0.940042 6.86534 1.82004 6.28534 2.42004C5.86534 2.90004 5.46534 3.42004 5.10534 3.94004C4.94534 4.18004 4.78534 4.40004 4.64534 4.64004C4.48534 4.86004 4.16534 5.20004 4.08534 5.46004C4.08534 5.46004 4.18534 5.34004 4.26534 5.26004C4.04534 5.60004 3.84534 5.96004 3.64534 6.30004C3.62534 6.28004 3.76534 6.00004 3.76534 6.00004C3.58534 5.96004 2.76534 7.60004 2.66534 7.78004C2.30534 8.44004 1.98534 9.10004 1.76534 9.80004C1.52534 10.58 1.20534 11.32 0.965341 12.08C0.845341 12.46 0.725341 12.82 0.645341 13.2C0.605341 13.38 0.565341 13.54 0.545341 13.72C0.545341 13.74 0.505341 14.06 0.545341 14.02C0.505341 14.16 0.505341 14.34 0.485341 14.48C0.485341 14.48 0.485341 14.14 0.505341 14.1C0.425341 14.2 0.485341 14.58 0.465341 14.62C0.365341 15.38 0.205341 16.18 0.465341 16.92C0.805341 17.94 1.64534 18.78 2.56534 19.32C3.04534 19.62 3.68534 19.96 4.28534 19.92C4.98534 19.88 5.66534 19.3 6.18534 18.88C7.70534 17.6 9.08534 15.8 9.34534 13.76C9.36534 13.62 9.46534 12.92 9.22534 12.9C9.00534 12.88 8.84534 13.36 8.76534 13.48C8.16534 14.46 7.46534 15.38 6.68534 16.22C5.88534 17.1 4.88534 18.04 3.66534 18.32C3.50534 18.36 3.32534 18.38 3.14534 18.38C2.90534 18.36 2.68534 18.3 2.50534 18.12C2.40534 18.02 2.30534 17.68 2.18534 17.62C2.18534 17.52 2.16534 17.42 2.14534 17.36L2.08534 17.24C2.06534 16.64 2.08534 16.08 2.18534 15.46V15.44C2.18534 15.42 2.20534 15.42 2.20534 15.4ZM5.72534 5.62004C4.94534 6.90004 4.28534 8.22004 3.62534 9.58004C3.24534 10.38 2.86534 11.2 2.56534 12.06C2.98534 10.72 3.48534 9.44004 4.08534 8.16004C4.80534 6.62004 5.76534 5.12004 6.90534 3.88004C6.44534 4.44004 6.04534 5.08004 5.72534 5.62004ZM7.78534 3.42004C7.50534 3.70004 7.24534 4.02004 7.00534 4.32004C7.38534 3.82004 7.78534 3.32004 8.28534 2.92004C8.10534 3.08004 7.92534 3.28004 7.78534 3.42004ZM9.82534 3.58004C9.86534 3.46004 9.90534 3.32004 9.92534 3.16004C9.88534 3.34004 9.80534 3.52004 9.80534 3.66004C9.82534 3.62004 9.82534 3.60004 9.82534 3.58004Z" fill="white"/>
<path d="M20.7058 12.02C20.7058 12.02 20.7258 12.04 20.7058 12C20.6058 11.86 20.4658 11.96 20.3258 12C19.7458 12.12 19.1458 12.26 18.5458 12.36C18.7658 11.64 18.9858 10.88 19.0658 10.14C19.1058 9.86004 19.1258 9.56004 19.0658 9.28004C19.0258 9.10004 18.9658 8.92004 18.8658 8.76004C18.8658 8.76004 18.6258 8.46004 18.6858 8.62004L18.6658 8.60004L18.5858 8.44004L18.6658 8.52004C18.6858 8.40004 18.3458 8.18004 18.3458 8.18004C17.8458 7.68004 17.1658 7.30004 16.4858 7.68004C16.0658 7.92004 15.7258 8.32004 15.4458 8.72004C15.3458 8.86004 15.2458 9.02004 15.1658 9.18004C15.0858 9.34004 14.9658 9.86004 14.8458 9.94004C14.7458 10.02 14.4458 10.04 14.3058 10.12C14.1058 10.2 13.9258 10.3 13.7658 10.42C13.3858 10.66 13.0858 11 12.8058 11.34C12.3258 11.98 12.0858 12.7 11.7458 13.34C11.1058 14.56 11.8058 16.16 12.9858 16.74C13.3658 16.92 13.8058 17 14.2058 16.96C14.6258 16.9 15.0258 16.68 15.3458 16.44C15.6458 16.22 16.3058 15.82 16.4258 15.48C16.4258 15.46 16.3858 15.48 16.3258 15.54L16.9058 14.86C16.9258 14.88 16.7658 15.08 16.7658 15.08C16.9058 15.14 17.6258 14.08 17.7058 14C17.8458 13.76 17.9858 13.5 18.1458 13.26C18.2858 13.08 18.2458 13.1 18.4458 13.02C18.4258 13.04 18.6858 12.96 18.7258 12.96C18.9458 12.92 21.2858 12.76 20.7058 12.02ZM13.7858 16.06H13.7658C12.1058 16.3 14.0258 12.78 14.0658 12.58L13.9458 12.76C14.2458 12.16 14.5258 11.68 14.6658 11.52C14.8858 12.52 15.9658 12.9 16.8458 13.02C16.2658 14.18 15.1858 15.8 13.7858 16.06ZM17.7258 10.52C17.5858 11.08 17.4658 11.82 17.1658 12.32C17.0658 12.52 17.1258 12.46 16.9258 12.5C16.8058 12.54 16.5458 12.5 16.4258 12.48C16.2058 12.46 15.9458 12.42 15.7858 12.28C15.5058 12.04 15.5458 11.66 15.5858 11.32C15.6258 10.98 15.7258 10.66 15.8458 10.34C15.9058 10.22 16.2858 9.58004 16.2258 9.46004C16.2058 9.40004 15.9858 9.76004 15.9658 9.78004C16.0858 9.56004 16.2058 9.44004 16.3058 9.30004C16.2858 9.30004 16.3058 9.28004 16.3258 9.24004V9.26004L16.3458 9.22004C16.3458 9.22004 16.3458 9.20004 16.3658 9.20004C16.6658 8.80004 17.4058 7.90004 17.8058 8.52004C18.1058 9.04004 17.8258 10.02 17.7258 10.52ZM16.3458 9.22004L16.3658 9.20004C16.3658 9.22004 16.3458 9.22004 16.3458 9.22004Z" fill="white"/>
<path d="M32.3383 12.12V12.1C32.2183 11.44 31.3183 12.54 31.1983 12.64C30.6183 13.28 30.0783 13.98 29.5583 14.68C29.0383 15.4 28.5383 16.12 27.9983 16.84C27.7383 17.2 27.4783 17.54 27.1783 17.86C27.0783 17.98 26.8383 18.32 26.6583 18.32C25.9583 18.32 26.4983 15.5 26.5783 15.06C26.6983 14.28 26.7583 13.24 27.2583 12.62C27.3783 12.46 28.7383 10.72 28.7383 10.72C28.6983 10.7 28.5383 10.9 28.4383 11.02L29.2983 9.86004L29.3583 9.78004L29.5183 9.56004C29.5383 9.58004 29.5183 9.62004 29.4983 9.66004L29.6783 9.46004L30.1983 8.78004C30.5783 8.24004 30.9383 7.66004 31.2783 7.10004C31.8183 6.18004 32.5583 4.86004 32.1583 3.74004C31.8583 2.92004 30.7583 2.76004 30.0183 3.04004C29.4783 3.24004 29.0183 3.66004 28.6383 4.10004C28.4383 4.36004 28.2383 4.64004 28.0583 4.94004C27.9983 5.02004 27.7383 5.66004 27.6783 5.74004H27.6983C27.5783 5.96004 27.4583 6.18004 27.3783 6.40004C27.4183 6.24004 27.5183 5.92004 27.5983 5.86004C27.4383 5.98004 27.2983 6.56004 27.2583 6.62004C26.4983 8.28004 25.8383 9.96004 25.3583 11.72C24.8183 11.1 23.9583 10.04 23.0183 10.42C22.2383 10.74 21.6583 11.56 21.2583 12.28C20.8983 12.92 20.7983 13.58 20.5383 14.2C20.0783 15.26 19.8583 17.44 21.4183 17.76C21.8983 17.86 22.3383 17.56 22.7183 17.3C23.3983 16.8 24.0383 16.22 24.6383 15.62C24.5383 16.68 24.3183 18.28 25.1783 19.12C26.2383 20.2 27.2983 18.74 27.9383 17.94C28.7583 16.9 29.3983 15.74 30.2183 14.74C30.6183 14.26 31.0183 13.78 31.4383 13.34C31.7583 13.02 32.3983 12.62 32.3383 12.12ZM24.9783 13.44C24.9583 13.5 24.9583 13.54 24.9583 13.54C24.8783 14.02 24.8783 14.44 24.5383 14.78C24.2383 15.1 23.9183 15.4 23.5983 15.7C23.2983 15.98 22.5783 16.8 22.1183 16.76C21.5583 16.7 21.9783 15.42 22.2583 14.64C21.9583 15.44 21.4783 16.74 22.1383 16.78C22.3183 16.8 22.6183 16.64 22.8783 16.42C22.6383 16.64 22.2383 16.94 21.9983 16.82C21.5383 16.62 21.9383 15.48 22.0183 15.16C22.2783 14.24 22.6583 13.36 23.0983 12.52C23.3183 12.1 23.6383 11.42 24.0583 11.38L23.9583 11.44C23.9783 11.42 23.9983 11.42 24.0183 11.42C24.1583 11.38 24.2983 11.48 24.3983 11.56C24.6583 11.74 24.8183 12.08 24.9983 12.34C25.1983 12.66 25.0583 13 24.9783 13.36V13.44ZM28.1983 8.82004C28.1983 8.80004 28.1983 8.76004 28.2183 8.74004V8.72004C28.2383 8.66004 28.2583 8.64004 28.2583 8.64004V8.62004C28.7183 7.34004 29.2183 6.06004 29.9383 4.90004C30.1183 4.60004 30.6383 3.68004 31.0983 3.94004C31.2783 4.04004 31.3183 4.30004 31.3183 4.48004C31.3983 5.68004 30.4383 7.10004 29.8383 8.06004C29.1383 9.18004 28.3583 10.28 27.5383 11.3L27.9783 10.84L28.3783 10.34L27.3583 11.66L27.2183 11.84L27.1383 11.92C27.1583 11.8 27.2583 11.68 27.3583 11.54C27.3183 11.58 27.2783 11.62 27.2583 11.66C27.5183 10.8 27.7983 9.94004 28.0983 9.08004C28.0783 9.10004 28.0983 9.06004 28.1183 8.98004L28.1783 8.88004C28.1783 8.86004 28.1783 8.84004 28.1983 8.82004ZM26.5183 10.46C26.4783 10.56 26.3583 11.02 26.2983 11.08C26.2983 11.1 26.2783 11.12 26.2583 11.12C26.4183 10.92 26.3183 10.66 26.3983 10.42C26.4383 10.3 26.6383 10.08 26.6783 9.92004C26.6783 10.08 26.5783 10.36 26.5183 10.46ZM23.3383 16C23.8383 15.56 24.3183 15.1 24.7783 14.62C24.7383 14.88 24.1183 15.32 23.8983 15.52C23.6383 15.78 23.3383 16.04 23.0383 16.28H23.0183L23.3383 16ZM26.8783 8.64004C26.7983 8.88004 26.6983 9.10004 26.5783 9.32004C26.6783 9.02004 26.7383 8.72004 26.8783 8.44004C26.9983 8.22004 27.1383 7.94004 27.2383 7.68004C27.1383 8.00004 26.9783 8.34004 26.8783 8.64004ZM28.1783 8.88004L28.0983 9.08004C28.0983 9.06004 28.1183 9.02004 28.1183 8.98004L28.1783 8.88004ZM23.8583 11.52C23.7783 11.58 23.7183 11.66 23.6983 11.66C23.7383 11.66 23.7983 11.58 23.8583 11.52ZM24.4183 11.48C24.4583 11.5 24.4983 11.52 24.5383 11.56L24.4183 11.48ZM28.3783 11.12C28.3783 11.1 28.3983 11.08 28.4183 11.06C28.3983 11.1 28.3783 11.12 28.3783 11.12ZM28.4183 11.06L28.4383 11.02C28.4383 11.04 28.4183 11.06 28.4183 11.06Z" fill="white"/>
<path d="M39.7299 12.06C39.7299 12.08 39.7299 12.08 39.7099 12.06V12.04C39.3899 11.5 38.9699 12.24 38.7899 12.5C38.4499 12.96 38.1299 13.4 37.7699 13.82C37.4699 14.18 37.1499 14.54 36.9099 14.92C36.9099 14.96 36.8699 15.06 36.8699 15.06C36.7899 15.18 36.6699 15.28 36.5699 15.4C36.3899 15.58 36.2099 15.78 36.0099 15.96C35.7099 16.24 34.0299 17.82 33.8099 16.8C33.6899 16.3 33.8499 15.68 33.9499 15.2C34.0099 14.94 34.0699 14.7 34.1099 14.44C34.1499 14.24 34.0899 14.04 34.1899 13.84C34.2499 13.72 34.2699 13.74 34.4099 13.7L34.7499 13.58C34.9699 13.5 35.1899 13.42 35.3899 13.3C35.6899 13.12 35.9699 12.9 36.2299 12.68C36.8499 12.16 37.5099 11.54 37.7699 10.76C37.9099 10.32 37.9299 9.84004 37.6499 9.46004C37.3899 9.12004 36.9499 8.94004 36.5499 8.86004C35.4699 8.66004 34.6499 9.28004 34.0299 10.1C33.2699 11.04 32.7299 12.2 32.4699 13.38C32.3299 13.96 32.2499 14.54 32.1499 15.14C32.0499 15.74 31.9899 16.3 32.3099 16.86C32.2899 16.66 32.2499 16.48 32.2499 16.3C32.2499 16.2 32.2899 16.1 32.2899 16.02C32.2899 15.98 32.2499 15.86 32.2499 15.8C32.2499 15.62 32.2899 15.48 32.3299 15.3C32.3499 15.12 32.3299 14.94 32.3499 14.76C32.3699 14.56 32.4499 14.4 32.5299 14.22C32.5899 14.06 32.6099 13.92 32.6699 13.76C32.7299 13.62 32.7699 13.46 32.8299 13.3C32.8499 13.2 32.9499 13.08 33.0099 12.96C32.9499 13.14 32.8299 13.3 32.7899 13.46C32.7299 13.7 32.7699 13.96 32.7499 14.2C32.7099 14.46 32.6299 14.72 32.5899 15C32.5499 15.26 32.4299 15.5 32.3899 15.76C32.3499 16 32.2699 16.18 32.2899 16.42C32.2899 16.56 32.3099 16.7 32.3299 16.82C32.3499 16.98 32.4499 17.08 32.5499 17.2C32.8899 17.6 33.3499 17.92 33.8699 18.06C34.2299 18.16 34.5499 18.14 34.8899 17.96C35.3699 17.7 35.7899 17.3 36.1499 16.92C36.4899 16.54 36.7499 16.12 37.0499 15.72C37.3299 15.36 37.6699 15.02 37.9499 14.66L39.0299 13.26L39.6499 12.44C39.7499 12.32 39.8099 12.22 39.7299 12.06ZM34.7699 12.28C34.7899 12.24 34.7899 12.22 34.7899 12.22C35.0899 11.58 35.3099 10.9 35.7299 10.28L36.0899 9.80004C36.1699 9.70004 36.3099 9.52004 36.4499 9.48004C36.7499 9.42004 36.8299 9.94004 36.8099 10.14L36.7299 10.56C36.7099 10.68 36.7499 10.76 36.7299 10.86C36.6899 10.98 36.5899 11.04 36.5299 11.14L36.1899 11.58C35.7299 12.12 35.1499 12.58 34.5099 12.92C34.6099 12.7 34.6699 12.48 34.7699 12.28Z" fill="white"/>
<path d="M51.7608 6.20004C51.6808 5.56004 50.7008 5.08004 50.1608 5.46004C49.7208 5.76004 49.3208 6.58004 49.0008 7.06004L47.0408 10.02C46.7408 10.48 46.4408 10.94 46.1208 11.38C46.0408 11.52 45.2808 12.7 45.2808 12.7C45.3608 12.72 45.5408 12.44 45.5808 12.4C45.0408 13.16 44.3408 13.96 43.6808 14.72C43.4608 15 42.1408 16.74 41.6608 16.52C41.5008 16.44 41.4608 16.18 41.4408 16.04C41.2808 14.98 41.6808 13.92 41.8008 12.9L41.7208 13.1L41.8408 12.6C41.8408 12.66 41.8208 12.72 41.8208 12.78L41.8408 12.66L41.7808 13.26C42.0608 12.06 42.4608 10.9 42.9208 9.78004C43.0408 9.50004 44.2008 6.60004 44.4408 6.34004C44.4008 6.36004 44.3408 6.44004 44.2808 6.52004C44.6608 5.82004 45.0608 5.16004 45.5208 4.52004C45.4208 4.68004 45.2408 4.98004 45.2408 4.98004C45.3208 5.00004 46.1208 3.90004 46.1208 3.78004C46.1208 3.76004 46.0608 3.80004 46.0008 3.84004C46.2008 3.58004 46.3408 3.44004 46.1808 3.00004C45.9408 2.50004 45.2408 1.88004 44.6608 2.18004C44.5408 2.26004 44.4608 2.36004 44.3808 2.46004C43.9608 3.00004 43.6208 3.70004 43.3408 4.30004C43.2408 4.54004 43.1608 4.58004 43.0008 4.76004C42.7408 5.06004 42.6008 5.46004 42.4208 5.80004C42.0608 6.52004 41.7808 7.28004 41.4608 8.02004C41.1408 8.70004 40.8808 9.40004 40.6608 10.12C40.5608 10.4 40.4808 10.68 40.4008 10.96C40.3208 11.24 40.0408 11.76 40.0808 12.06L40.2008 11.8C40.1008 12.14 40.0208 12.5 39.9408 12.86C39.9208 12.86 39.9608 12.6 39.9608 12.6C39.8808 12.6 39.7008 13.48 39.6608 13.6C39.5808 14.02 39.5208 14.44 39.4808 14.88C39.4608 15.34 39.4808 15.76 39.7008 16.18C40.1208 16.92 40.8808 17.64 41.7008 17.9C41.8408 17.94 42.0008 17.98 42.1408 17.96C42.2808 17.94 42.4208 17.88 42.5208 17.78C42.6008 17.74 42.9208 17.4 42.7008 17.56L43.0808 17.2C43.0808 17.2 42.9008 17.42 42.8408 17.46C42.9408 17.42 43.1608 17.12 43.1608 17.12C43.8208 16.4 44.4808 15.7 45.0808 14.92C45.7008 14.08 46.2608 13.16 46.8208 12.26C46.6608 12.74 46.6208 13.22 46.4808 13.7C46.4008 13.96 46.3208 14.22 46.2608 14.48C46.2208 14.58 46.1808 15.06 46.2208 15.02C46.2208 15.08 46.2208 15.12 46.2008 15.16C46.2008 15.14 46.2008 15.12 46.1808 15.1C46.1208 15.12 46.1208 15.72 46.1008 15.82C46.0208 16.1 45.9008 16.36 45.8608 16.68C45.7608 17.52 45.8208 18.5 46.3408 19.22C46.6608 19.66 47.1408 19.9 47.6808 19.94C48.2608 19.96 48.5808 19.64 48.8808 19.2C49.0808 18.9 49.2608 18.64 49.3808 18.3C49.4808 18.02 49.6808 17.48 49.5608 17.2C49.4808 17.02 49.4408 17 49.2808 17.08C49.0608 17.16 48.8008 17.64 48.6608 17.82C48.4608 18.04 48.0608 18.6 47.7208 18.64C47.5208 18.66 47.5608 18.62 47.5208 18.38C47.5008 18.24 47.5008 17.3 47.5208 17.28C47.4608 17.36 47.4408 17.44 47.4208 17.52C47.5008 16.86 47.7808 16.06 47.9808 15.36C48.2208 14.54 48.4008 13.72 48.6208 12.9C48.8608 12.06 49.1808 11.22 49.5208 10.42C49.6008 10.24 50.5008 8.26004 50.6408 8.08004C50.5008 8.18004 49.7808 9.70004 49.5408 10.2C50.0208 9.06004 50.5808 7.96004 51.2808 6.92004C51.3008 6.92004 51.0808 7.26004 51.1208 7.26004C51.1808 7.30004 51.6608 6.56004 51.6208 6.54004C51.6008 6.54004 51.5808 6.54004 51.5608 6.56004C51.6608 6.46004 51.7808 6.40004 51.7608 6.20004ZM46.5408 15.7C46.3608 16.52 46.1608 17.62 46.3208 18.44C46.1408 17.52 46.2008 16.48 46.3608 15.56C46.4808 14.8 46.7008 14.1 46.9608 13.4C46.7408 14.2 46.7208 14.9 46.5408 15.7ZM43.2008 8.10004C43.7608 6.76004 44.5608 5.54004 45.4008 4.38004C44.5608 5.58004 43.8808 6.88004 43.2808 8.22004C42.8208 9.28004 42.4008 10.3 42.1008 11.36C42.1608 11.08 42.2208 10.8 42.3208 10.52C42.5608 9.70004 42.8808 8.90004 43.2008 8.10004ZM42.7408 10.04C43.1008 9.06004 43.5208 8.08004 44.0008 7.12004C43.5608 8.04004 42.9608 9.48004 42.7408 10.04ZM49.0808 11.36C49.0208 11.54 48.9408 11.72 48.8608 11.88L49.2208 10.96L49.0808 11.36Z" fill="white"/>
<path d="M63.2313 12.04C63.1113 12.06 62.0713 12.38 62.1313 12.54C62.1313 12.56 62.1713 12.58 62.1913 12.58C61.8513 12.72 61.4113 12.74 61.0713 12.96C60.6913 13.22 60.3313 13.48 59.9313 13.7C60.2913 13.08 60.6313 12.42 60.8513 11.76C60.9313 11.52 61.3913 10.04 61.0913 9.88004C61.0513 9.86004 61.0313 10.04 61.0113 10.14C61.0313 9.34004 60.7713 8.12004 59.6913 8.04004C59.0313 8.00004 58.4113 8.82004 58.0513 9.26004C57.2313 10.3 56.5113 11.42 55.7913 12.5C55.5913 12.8 53.5913 16.04 53.5913 16.04C53.5913 16.04 53.7313 15.84 53.9113 15.58C53.7313 15.88 53.5513 16.2 53.3913 16.52C53.4713 16.22 54.2313 13.84 54.7113 12.44C54.7513 12.38 54.7713 12.3 54.7913 12.24L54.9113 11.9V11.92C55.0913 11.38 55.2713 10.84 55.4313 10.28C55.4313 10.34 55.3513 10.64 55.3713 10.64C55.4913 10.66 55.6513 9.82004 55.5713 9.82004L55.5113 9.92004C55.5713 9.62004 55.6713 9.48004 55.4913 9.14004C55.3513 8.84004 55.1113 8.56004 54.7713 8.48004C54.1113 8.30004 53.7913 8.84004 53.8313 9.36004C53.8313 9.44004 53.9313 9.48004 53.9313 9.56004C53.9313 9.66004 53.8313 9.84004 53.8113 9.92004C53.6713 10.34 53.5713 10.74 53.4113 11.14C53.3313 11.36 52.5913 13.44 52.5913 13.44C52.6313 13.42 52.6513 13.38 52.6713 13.34C52.6113 13.52 52.5513 13.7 52.4713 13.88C52.4513 13.86 52.5313 13.72 52.4913 13.72C52.2913 13.68 51.7913 15.36 51.7513 15.52C51.6713 15.9 51.5713 16.26 51.4313 16.64C51.3713 16.84 51.2913 17.04 51.2313 17.26C51.2313 17.28 51.1313 17.76 51.2313 17.58C51.2113 17.64 51.1913 17.68 51.1913 17.72C51.1913 17.7 51.1713 17.68 51.1713 17.66C51.1113 17.68 51.0713 18.1 51.0713 18.12C50.9913 18.34 50.8913 18.5 50.7913 18.7C50.5313 19.34 50.3913 20.04 50.2913 20.72C50.1313 21.76 49.6513 23.32 50.1713 24.28C50.3513 24.62 50.9113 25.32 51.3513 24.9C51.5513 24.7 51.5513 24.24 51.5713 24C51.6913 23.34 51.7913 22.66 51.9313 22L52.1113 21.08C52.1313 21.04 52.2913 20.3 52.2313 20.32C52.1913 20.36 52.1513 20.42 52.1313 20.48C52.2313 20.16 52.3713 19.86 52.4913 19.52C52.6513 19.04 52.7713 18.58 53.0113 18.14C53.2913 17.7 53.5313 17.22 53.7913 16.78C53.9913 16.42 54.1713 15.96 54.3913 15.66C54.4513 15.58 54.5713 15.54 54.6713 15.46C54.8713 15.24 55.0113 14.94 55.1713 14.7C55.4713 14.22 55.7313 13.74 56.0513 13.3C56.1913 13.1 57.7913 10.86 57.9513 10.72C57.9113 10.74 57.8713 10.76 57.8313 10.8C57.9913 10.6 58.1713 10.42 58.3313 10.26C58.3513 10.28 58.2113 10.4 58.2313 10.42C58.2713 10.44 59.1913 9.72004 59.3513 9.70004C59.7913 9.62004 59.6313 10.46 59.5713 10.68C59.4713 11.14 59.2113 11.58 58.9913 11.98C58.8713 12.2 58.7513 12.4 58.6513 12.62C58.6313 12.64 58.4713 13.02 58.5313 12.98L58.4113 13.16C58.4513 13.1 58.4713 13.02 58.4713 13.02C58.3913 13.02 58.2913 13.36 58.2713 13.42C58.1513 13.62 57.9913 13.78 57.8313 13.94C57.4113 14.42 57.0313 14.92 56.6113 15.38C56.2913 15.72 55.8713 16.32 55.3913 16.44C55.0513 16.52 54.7913 16.34 54.9713 16.88C55.0913 17.26 55.5313 18.14 56.0113 18.14C56.4513 18.14 56.9913 17.48 57.2513 17.2C57.5513 16.86 57.8913 16.54 58.2113 16.18C58.2913 16.06 59.2113 14.96 59.3513 14.9H59.3313C59.5313 14.8 59.7313 14.88 60.0113 14.68C60.1713 14.56 60.2513 14.44 60.4313 14.32C60.5713 14.24 60.6313 14.14 60.6913 14.08C60.6913 14.08 60.6913 14.1 60.7113 14.1C60.9113 13.9 61.1913 13.96 61.4513 13.78C61.7713 13.56 62.1713 13.28 62.4513 13.02C62.8113 12.7 63.3113 12.52 63.4713 11.98C63.3913 12 63.2913 12 63.2313 12.04ZM52.9913 14.08V14.1C52.9713 14.36 52.7913 14.66 52.6913 14.9C52.5513 15.28 52.4313 15.66 52.3113 16.04C52.0513 16.84 51.7513 17.64 51.4313 18.4C51.1713 19.04 50.9313 19.74 50.7513 20.44C50.9713 19.46 51.3313 18.5 51.6113 17.58C51.8713 16.74 52.2713 15.92 52.5913 15.1C52.6313 15 53.0113 14.2 52.9713 14.04C52.9913 14.06 52.9913 14.08 52.9913 14.08ZM53.8713 14.68C53.8113 14.92 53.7513 15.14 53.6713 15.34C53.7313 15.14 53.7913 14.9 53.8713 14.68ZM56.6113 11.4L56.2313 11.96C56.3513 11.78 56.4713 11.58 56.6113 11.4ZM59.8713 13.82C59.8913 13.76 59.9913 13.74 60.0513 13.7L59.8713 13.82ZM55.0913 11.48C55.0713 11.5 55.0513 11.56 55.0313 11.64L55.0913 11.48ZM55.9913 12.32V12.3C56.0113 12.28 56.0113 12.28 56.0113 12.26C56.0313 12.24 56.0113 12.28 55.9913 12.32ZM54.9513 11.82C54.9513 11.86 54.9313 11.88 54.9113 11.9L54.9513 11.82ZM50.7113 20.62C50.7113 20.6 50.7113 20.6 50.7313 20.58C50.7313 20.6 50.7313 20.6 50.7113 20.62ZM53.9913 14.44C53.9913 14.46 53.9713 14.46 53.9713 14.46L53.9913 14.44Z" fill="white"/>
<path d="M71.1294 12.3C71.0694 12.02 70.9094 11.98 70.7094 12.06C70.3294 12.24 69.9494 12.64 69.5894 12.88C68.7694 13.4 67.9494 13.82 67.0694 14.26C67.0694 14.24 67.0494 14.2 67.0294 14.14C67.0494 14.24 67.0294 14.28 67.0094 14.3C66.8094 13.44 66.6094 12.58 66.4494 11.7C66.5294 12.08 66.7094 12.72 66.8494 13.26C66.6694 12.42 66.4494 11.38 66.4694 11.38C66.4294 11.4 66.4294 11.44 66.4294 11.48C66.3894 11.24 66.3294 10.94 66.3694 10.68C66.3894 10.38 66.5494 10.12 66.6494 9.84004C66.6294 9.98004 66.5894 10.16 66.5894 10.16C66.7094 10.18 66.7894 9.44004 66.7894 9.36004C66.7694 9.24004 66.5094 8.86004 66.5094 8.96004C65.9694 8.46004 64.9094 9.56004 64.7494 10.04C64.6294 10.36 64.6294 10.7 64.6494 11.04C64.6694 11.38 64.7694 11.68 64.8694 12C64.9294 12.24 64.8494 12.4 64.8694 12.66C64.9094 13.06 65.0494 13.46 65.1294 13.84C65.2094 14.14 65.4694 14.74 65.4094 15.02C65.3694 15.3 64.7694 15.54 64.5094 15.7C64.1694 15.92 63.8294 16.18 63.4894 16.44C62.8894 16.9 62.2494 17.48 62.0094 18.22C61.9694 18.32 61.8294 18.76 61.9694 18.84C61.9894 18.86 62.0494 18.52 62.0694 18.48C61.8094 19.8 63.1094 20.44 64.3294 20.46C65.7094 20.5 66.6694 19.7 67.1494 18.46C67.3494 17.92 67.4094 17.36 67.3894 16.8C67.3894 16.42 67.3494 16.06 67.2894 15.7C67.2494 15.38 67.2094 15.4 67.4294 15.22C67.5894 15.1 67.8294 15.02 67.9894 14.94C68.6294 14.6 69.2094 14.2 69.7894 13.78C70.2094 13.48 71.2094 12.96 71.1294 12.32V12.3ZM63.0494 19.18C62.5294 19.02 63.0494 18.2 63.2294 17.94C63.5294 17.54 63.9694 17.24 64.3694 16.96L64.9694 16.56C65.0294 16.52 65.4094 16.22 65.2894 16.26L65.5294 16.12L65.3894 16.24C65.4294 16.22 65.4894 16.2 65.5294 16.16C65.5494 16.64 65.5494 17.12 65.4094 17.6C65.3894 17.68 65.0094 18.48 64.8494 18.64L64.9494 18.56C64.7694 18.78 64.5694 18.96 64.3294 19.1C64.3294 19.08 64.5094 18.96 64.4894 18.94L63.9294 19.16C63.6494 19.22 63.3294 19.28 63.0494 19.18ZM65.5694 19.76C65.0494 19.98 64.5494 20.08 64.0094 20.1C64.9894 20.04 66.0094 19.56 66.5894 18.74C66.3694 19.18 66.0894 19.52 65.5694 19.76ZM67.0294 14.08C67.0094 13.94 66.9694 13.74 66.9094 13.52C66.9494 13.74 66.9894 13.96 67.0294 14.08ZM67.2894 16.16C67.2694 16.14 67.2694 16.1 67.2694 16.06C67.2694 16.1 67.2894 16.14 67.2894 16.16Z" fill="white"/>
</svg>
